<mxfile host="app.diagrams.net" modified="2023-08-24T00:21:02.610Z" agent="Mozilla/5.0 (Macintosh; Intel Mac OS X 10_15_7) AppleWebKit/537.36 (KHTML, like Gecko) Chrome/116.0.0.0 Safari/537.36" version="21.6.9" etag="vYFRL9wjy_Xgwt6x9pJ6" type="github">
  <diagram name="PÃ¡gina-1" id="_DF0q7tgS58aT_COaJXm">
    <mxGraphModel>
      <root>
        <mxCell id="0" />
        <mxCell id="1" parent="0" />
      </root>
    </mxGraphModel>
  </diagram>
</mxfile>
